<?xml version="1.0" encoding="UTF-8"?>
<svg
  color="black"
  fill="transparent"
  stroke="black"
  stroke-width="2"
  viewBox="0 0 75 45"
  xmlns="http://www.w3.org/2000/svg"
>
  <defs>
    <clipPath id="tz_taktische-formation">
      <path d="M1,1 H74 V44 H1 Z" />
    </clipPath>
  </defs>
  <path d="M1,1 H74 V44 H1 Z" />
  <g clip-path="url(#tz_taktische-formation)">
    <g>
      <g>
        <path
          d="M15,10 a10 10 0 0 1 15 0 a10 10 0 0 0 15 0 a10 10 0 0 1 15 0"
        />
        <path
          d="M15,16 a10 10 0 0 1 15 0 a10 10 0 0 0 15 0 a10 10 0 0 1 15 0"
        />
        <path d="M37.5,23 l8,8 -8,8 -8,-8 Z" />
      </g>
    </g>
  </g>
</svg>
